<svg width="70" height="70" viewBox="0 0 70 70" fill="none" xmlns="http://www.w3.org/2000/svg">
<path d="M52.5 5.83398H17.5C12.6583 5.83398 8.75 9.71315 8.75 14.4965V46.3173C8.75 51.1006 12.6583 54.9798 17.5 54.9798H19.7167C22.05 54.9798 24.2667 55.884 25.9 57.5173L30.8875 62.4465C33.1625 64.6923 36.8667 64.6923 39.1417 62.4465L44.1292 57.5173C45.7625 55.884 48.0083 54.9798 50.3125 54.9798H52.5C57.3417 54.9798 61.25 51.1006 61.25 46.3173V14.4965C61.25 9.71315 57.3417 5.83398 52.5 5.83398ZM30.275 37.9465C31.4708 37.9465 32.4625 38.9381 32.4625 40.134C32.4625 41.3298 31.4708 42.3215 30.275 42.3215H22.4583C21.175 42.3215 19.9792 41.709 19.2208 40.659C18.4917 39.6673 18.3167 38.4423 18.6667 37.2756C19.6875 34.1548 22.1958 32.4631 24.4125 30.9465C26.7458 29.3715 28.0583 28.3798 28.0583 26.6881C28.0583 25.1715 26.8333 23.9465 25.3167 23.9465C23.8 23.9465 22.6042 25.2006 22.6042 26.7173C22.6042 27.9131 21.6125 28.9048 20.4167 28.9048C19.2208 28.9048 18.2292 27.9131 18.2292 26.7173C18.2292 22.809 21.4083 19.6006 25.3458 19.6006C29.2833 19.6006 32.4625 22.7798 32.4625 26.7173C32.4625 30.8298 29.3708 32.9298 26.8917 34.6215C25.3458 35.6715 23.8875 36.6632 23.1583 37.9757H30.275V37.9465ZM49.5833 38.1507H48.9708V40.1632C48.9708 41.359 47.9792 42.3507 46.7833 42.3507C45.5875 42.3507 44.5958 41.359 44.5958 40.1632V38.1507H38.8792C38.8792 38.1507 38.8792 38.1507 38.85 38.1507C37.4208 38.1507 36.1083 37.3923 35.3792 36.1673C34.65 34.9131 34.65 33.3673 35.3792 32.1423C37.3625 28.7298 39.6667 24.8507 41.7667 21.4673C42.7 19.9798 44.4792 19.309 46.1417 19.7757C47.8042 20.2715 48.9708 21.7881 48.9417 23.5381V33.8048H49.5833C50.7792 33.8048 51.7708 34.7965 51.7708 35.9923C51.7708 37.1882 50.7792 38.1507 49.5833 38.1507Z" fill="#00A542"/>
<path d="M44.5964 33.7742V25.1992C42.8755 27.9992 41.0964 31.0034 39.4922 33.7451H44.5964V33.7742Z" fill="#00A542"/>
</svg>
