<svg width="70" height="70" viewBox="0 0 70 70" fill="none" xmlns="http://www.w3.org/2000/svg">
<path d="M64.1667 43.75C64.1667 55.0375 55.0375 64.1667 43.75 64.1667L46.8125 59.0625" stroke="#FFC107" stroke-width="1.5" stroke-linecap="round" stroke-linejoin="round"/>
<path d="M5.83398 26.2506C5.83398 14.9632 14.9632 5.83398 26.2506 5.83398L23.1881 10.9382" stroke="#FFC107" stroke-width="1.5" stroke-linecap="round" stroke-linejoin="round"/>
<path d="M64.1667 12.2507V12.5715C64.1667 13.3882 63.525 14.0298 62.7083 14.0298H36.4583C35.6417 14.0298 35 13.3882 35 12.5715V12.2507C35 7.11732 36.2833 5.83398 41.475 5.83398H57.6917C62.8833 5.83398 64.1667 7.11732 64.1667 12.2507Z" fill="#FFC107"/>
<path d="M36.4583 16.9453C35.6417 16.9453 35 17.587 35 18.4036V21.3203V24.2078C35 29.3411 36.2833 30.6245 41.475 30.6245H57.6917C62.8833 30.6245 64.1667 29.3411 64.1667 24.2078V21.3203V18.4036C64.1667 17.587 63.525 16.9453 62.7083 16.9453H36.4583Z" fill="#FFC107"/>
<path d="M35.0006 45.7917V46.1125C35.0006 46.9292 34.359 47.5708 33.5423 47.5708H7.29232C6.47565 47.5708 5.83398 46.9292 5.83398 46.1125V45.7917C5.83398 40.6583 7.11732 39.375 12.309 39.375H28.5256C33.7173 39.375 35.0006 40.6583 35.0006 45.7917Z" fill="#FFC107"/>
<path d="M7.29232 50.4883C6.47565 50.4883 5.83398 51.1299 5.83398 51.9466V54.8633V57.7508C5.83398 62.8841 7.11732 64.1674 12.309 64.1674H28.5256C33.7173 64.1674 35.0006 62.8841 35.0006 57.7508V54.8633V51.9466C35.0006 51.1299 34.359 50.4883 33.5423 50.4883H7.29232Z" fill="#FFC107"/>
</svg>
