<svg width="70" height="70" viewBox="0 0 70 70" fill="none" xmlns="http://www.w3.org/2000/svg">
<path d="M57.8369 25.3751L44.6244 12.1626C41.8536 9.39175 38.0327 7.90425 34.1244 8.10842L19.5411 8.80842C13.7077 9.07092 9.07023 13.7084 8.77857 19.5126L8.07857 34.0959C7.90357 38.0042 9.3619 41.8251 12.1327 44.5959L25.3452 57.8084C30.7702 63.2334 39.5786 63.2334 45.0327 57.8084L57.8369 45.0042C63.2911 39.6084 63.2911 30.8001 57.8369 25.3751ZM27.7077 36.1084C23.0994 36.1084 19.3077 32.3459 19.3077 27.7084C19.3077 23.0709 23.0994 19.3084 27.7077 19.3084C32.3161 19.3084 36.1077 23.0709 36.1077 27.7084C36.1077 32.3459 32.3161 36.1084 27.7077 36.1084ZM51.1286 39.4626L39.4619 51.1292C39.0244 51.5667 38.4702 51.7709 37.9161 51.7709C37.3619 51.7709 36.8077 51.5667 36.3702 51.1292C35.5244 50.2834 35.5244 48.8834 36.3702 48.0376L48.0369 36.3709C48.8827 35.5251 50.2827 35.5251 51.1286 36.3709C51.9744 37.2167 51.9744 38.6167 51.1286 39.4626Z" fill="#EB001B"/>
</svg>
