<svg width="70" height="70" viewBox="0 0 70 70" fill="none" xmlns="http://www.w3.org/2000/svg">
<path d="M62.709 45.209C63.5256 45.209 64.1673 45.8507 64.1673 46.6673V49.584C64.1673 54.4257 60.259 58.334 55.4173 58.334C55.4173 53.5215 51.4798 49.584 46.6673 49.584C41.8548 49.584 37.9173 53.5215 37.9173 58.334H32.084C32.084 53.5215 28.1465 49.584 23.334 49.584C18.5215 49.584 14.584 53.5215 14.584 58.334C9.74232 58.334 5.83398 54.4257 5.83398 49.584V43.7507C5.83398 42.1465 7.14648 40.834 8.75065 40.834H36.459C40.484 40.834 43.7506 37.5673 43.7506 33.5423V17.5007C43.7506 15.8965 45.0631 14.584 46.6673 14.584H49.1173C51.2173 14.584 53.1423 15.7215 54.1923 17.5298L56.059 20.7965C56.3215 21.2632 55.9715 21.8757 55.4173 21.8757C51.3923 21.8757 48.1256 25.1423 48.1256 29.1673V37.9173C48.1256 41.9423 51.3923 45.209 55.4173 45.209H62.709Z" fill="#1920D2"/>
<path d="M23.3333 64.1667C26.555 64.1667 29.1667 61.555 29.1667 58.3333C29.1667 55.1117 26.555 52.5 23.3333 52.5C20.1117 52.5 17.5 55.1117 17.5 58.3333C17.5 61.555 20.1117 64.1667 23.3333 64.1667Z" fill="#1920D2"/>
<path d="M46.6673 64.1667C49.889 64.1667 52.5007 61.555 52.5007 58.3333C52.5007 55.1117 49.889 52.5 46.6673 52.5C43.4457 52.5 40.834 55.1117 40.834 58.3333C40.834 61.555 43.4457 64.1667 46.6673 64.1667Z" fill="#1920D2"/>
<path d="M64.1667 36.5458V40.8333H55.4167C53.8125 40.8333 52.5 39.5208 52.5 37.9167V29.1667C52.5 27.5625 53.8125 26.25 55.4167 26.25H59.1792L63.4083 33.6583C63.9042 34.5333 64.1667 35.525 64.1667 36.5458Z" fill="#1920D2"/>
<path d="M38.1487 5.83398H16.5945C11.3737 5.83398 6.9987 9.56732 6.0362 14.5257H18.782C19.8904 14.5257 20.7654 15.4298 20.7654 16.5382C20.7654 17.6465 19.8904 18.5215 18.782 18.5215H5.83203V22.5465H13.4154C14.5237 22.5465 15.4279 23.4507 15.4279 24.559C15.4279 25.6673 14.5237 26.5423 13.4154 26.5423H5.83203V30.5673H8.07786C9.1862 30.5673 10.0904 31.4715 10.0904 32.5798C10.0904 33.6882 9.1862 34.5632 8.07786 34.5632H5.83203V35.234C5.83203 36.8382 7.14453 38.1507 8.7487 38.1507H35.4362C38.4112 38.1507 40.832 35.7298 40.832 32.7548V8.51732C40.832 7.02982 39.6362 5.83398 38.1487 5.83398Z" fill="#1920D2"/>
<path d="M6.03685 14.5254H5.59935H2.74102C1.63268 14.5254 0.728516 15.4296 0.728516 16.5379C0.728516 17.6462 1.63268 18.5212 2.74102 18.5212H5.39518H5.83268V16.5962C5.83268 15.8962 5.92018 15.1962 6.03685 14.5254Z" fill="#1920D2"/>
<path d="M5.39518 22.5469H2.74102C1.63268 22.5469 0.728516 23.451 0.728516 24.5594C0.728516 25.6677 1.63268 26.5427 2.74102 26.5427H5.39518H5.83268V22.5469H5.39518Z" fill="#1920D2"/>
<path d="M5.39518 30.5664H2.74102C1.63268 30.5664 0.728516 31.4706 0.728516 32.5789C0.728516 33.6872 1.63268 34.5622 2.74102 34.5622H5.39518H5.83268V30.5664H5.39518Z" fill="#1920D2"/>
</svg>
